<svg width="309" height="80" viewBox="0 0 309 80" fill="none" xmlns="http://www.w3.org/2000/svg">
<path d="M102.97 69.5867C102.97 70.3801 102.97 71.0742 103.037 71.8015C102.771 71.3056 102.44 70.7437 102.042 70.1487L99.5567 66.248H98.1648V74.1485H99.4904V70.7437C99.4904 69.8512 99.4904 69.1239 99.4573 68.4628C99.7556 68.9917 100.087 69.5537 100.518 70.2478L103.003 74.1485H104.296V66.248H102.97V69.5867Z" fill="white"/>
<path d="M112.283 66.248L109.532 74.1489H110.957L111.752 71.7687H114.205L115.033 74.1489H116.492L113.741 66.248H112.283ZM113.873 70.6447H112.084L112.747 68.7274C112.813 68.496 112.912 68.2646 112.979 68.0001C113.045 68.2315 113.111 68.4629 113.211 68.7274L113.873 70.6447Z" fill="white"/>
<path d="M119.939 67.4712H122.258V74.1489H123.65V67.4712H126.003V66.248H119.939V67.4712Z" fill="white"/>
<path d="M135.647 70.9093C135.647 71.9011 135.349 73.1242 133.99 73.1242C132.963 73.1242 132.4 72.3308 132.4 70.9093V66.248H131.008V70.8763C131.008 73.8515 132.864 74.2813 133.957 74.2813C135.913 74.2813 137.039 73.0251 137.039 70.8432V66.248H135.647V70.9093Z" fill="white"/>
<path d="M147.678 71.8676C147.512 71.1734 147.214 70.6775 146.783 70.38C147.545 69.9833 147.976 69.2891 147.976 68.4296C147.976 67.8015 147.744 67.2395 147.313 66.8428C146.816 66.38 146.054 66.1816 144.96 66.1816C144.331 66.1816 143.568 66.2478 143.038 66.3469L142.872 66.38V74.1486H144.264V70.9089H144.993C145.789 70.942 146.153 71.2726 146.352 72.2313C146.65 73.5866 146.783 73.9503 146.882 74.0825L146.949 74.1817H148.407L148.241 73.9172C148.109 73.6197 147.91 72.8263 147.678 71.8676ZM146.617 68.5618C146.617 69.3222 146.021 69.818 145.093 69.818H144.264V67.4048C144.463 67.3717 144.728 67.3717 145.06 67.3717C145.756 67.3387 146.617 67.537 146.617 68.5618Z" fill="white"/>
<path d="M155.697 66.248L152.947 74.1489H154.372L155.167 71.7687H157.62L158.448 74.1489H159.906L157.156 66.248H155.697ZM157.288 70.6447H155.499L156.161 68.7274C156.261 68.496 156.327 68.2646 156.393 68.0001C156.46 68.2315 156.526 68.4629 156.625 68.7274L157.288 70.6447Z" fill="white"/>
<path d="M166.502 66.248H165.11V74.1489H169.75V72.9588H166.502V66.248Z" fill="white"/>
<path d="M230.299 66.2139C229.603 66.2139 228.974 66.2469 228.377 66.3461L228.211 66.3792V74.1475H229.603V71.1724C229.802 71.2054 230.001 71.2054 230.2 71.2054C231.26 71.2054 232.122 70.9079 232.685 70.3129C233.116 69.8832 233.348 69.2881 233.348 68.5609C233.348 67.8667 233.083 67.2386 232.619 66.8419C232.089 66.4453 231.327 66.2139 230.299 66.2139ZM230.233 70.0484C229.968 70.0484 229.769 70.0154 229.603 70.0154V67.4039C229.769 67.3709 230.001 67.3709 230.332 67.3709C230.929 67.3709 231.956 67.5361 231.956 68.6601C231.956 69.5526 231.327 70.0484 230.233 70.0484Z" fill="white"/>
<path d="M243.589 71.8676C243.423 71.1734 243.125 70.6775 242.694 70.38C243.456 69.9833 243.887 69.2891 243.887 68.4296C243.887 67.8015 243.655 67.2395 243.224 66.8428C242.727 66.38 241.965 66.1816 240.871 66.1816C240.241 66.1816 239.512 66.2478 238.949 66.3469L238.783 66.38V74.1486H240.175V70.9089H240.904C241.733 70.942 242.064 71.2726 242.263 72.2313C242.561 73.5866 242.694 73.9503 242.793 74.0825L242.86 74.1817H244.318L244.185 73.9172C244.02 73.6197 243.821 72.7932 243.589 71.8676ZM242.528 68.5618C242.528 69.3222 241.932 69.818 241.004 69.818H240.175V67.4048C240.308 67.3717 240.573 67.3717 240.971 67.3717C241.7 67.3387 242.528 67.537 242.528 68.5618Z" fill="white"/>
<path d="M252.803 66.1152C250.615 66.1152 249.058 67.8343 249.058 70.2477C249.058 72.6279 250.549 74.2809 252.703 74.2809C254.559 74.2809 256.448 72.9916 256.448 70.1154C256.448 67.7351 254.957 66.1152 252.803 66.1152ZM252.736 73.1238C251.179 73.1238 250.483 71.6362 250.483 70.2477C250.483 68.793 251.179 67.3054 252.769 67.3054C254.294 67.3054 255.023 68.793 255.023 70.1815C255.023 71.6362 254.294 73.1238 252.736 73.1238Z" fill="white"/>
<path d="M265.031 70.115C264.733 70.9084 264.501 71.6356 264.335 72.2637C264.136 71.5695 263.937 70.8753 263.672 70.115L262.446 66.2803H260.955L263.606 74.1811H264.965L267.848 66.2803H266.39L265.031 70.115Z" fill="white"/>
<path d="M274.145 66.248H272.753V74.1489H274.145V66.248Z" fill="white"/>
<path d="M282.331 66.2139C281.602 66.2139 280.873 66.28 280.21 66.3792L280.044 66.4122V74.1477L280.21 74.1807C280.774 74.2469 281.37 74.2799 282.033 74.2799C283.591 74.2799 284.784 73.8832 285.579 73.1559C286.341 72.3956 286.739 71.3378 286.739 70.0816C286.739 68.8585 286.341 67.8998 285.579 67.2386C284.817 66.5444 283.723 66.2139 282.331 66.2139ZM282.199 73.0568C281.867 73.0568 281.602 73.0568 281.403 73.0237V67.4039C281.602 67.3709 281.933 67.3378 282.364 67.3378C283.325 67.3378 284.088 67.5692 284.585 68.0651C285.049 68.5279 285.281 69.189 285.281 70.0485C285.281 72.032 284.22 73.0568 282.199 73.0568Z" fill="white"/>
<path d="M293.533 70.6447H296.483V69.4547H293.533V67.4712H296.648V66.248H292.141V74.1489H296.847V72.9588H293.533V70.6447Z" fill="white"/>
<path d="M307.618 73.8842C307.452 73.6197 307.253 72.8263 307.055 71.8676C306.889 71.1734 306.591 70.6775 306.16 70.38C306.922 69.9833 307.353 69.2891 307.353 68.4296C307.353 67.8015 307.121 67.2395 306.69 66.8428C306.193 66.38 305.431 66.1816 304.337 66.1816C303.674 66.1816 302.945 66.2478 302.415 66.3469L302.249 66.38V74.1486H303.608V70.9089H304.337C305.132 70.942 305.497 71.2726 305.696 72.2313C305.928 73.2561 306.093 73.8511 306.226 74.0825L306.292 74.1817H307.75L307.618 73.8842ZM305.994 68.5618C305.994 69.3222 305.397 69.818 304.47 69.818H303.641V67.4048C303.774 67.3717 304.039 67.3717 304.436 67.3717C305.165 67.3387 305.994 67.537 305.994 68.5618Z" fill="white"/>
<path d="M184 66.248H181.879V74.1489H187.049V72.3637H184V66.248Z" fill="white"/>
<path d="M192.22 74.1475H192.485C193.28 74.0814 194.208 73.5855 194.308 72.4285V66.2139H192.187V74.1475H192.22Z" fill="white"/>
<path d="M200.008 74.1479H200.273C201.102 74.0818 201.997 73.5859 202.096 72.4289V71.1397H203.455C203.753 71.1066 204.747 70.9083 204.814 69.586V69.3877H202.063V68.0654H205.013V66.2803H199.975V74.1479H200.008Z" fill="white"/>
<path d="M212.668 70.9753H214.159C214.457 70.9423 215.418 70.7109 215.485 69.4216V69.2233H212.668V68.0332H215.65V66.248H210.547V74.1489H215.816V72.3637H212.668V70.9753Z" fill="white"/>
<path d="M40.6975 0C18.2609 0 0 17.9504 0 40C0 62.0496 18.2609 80 40.6975 80C63.1342 80 81.395 62.0496 81.395 40C81.395 17.9504 63.1342 0 40.6975 0ZM40.6975 5.19008C60.2177 5.19008 76.0924 20.7934 76.0924 39.9669C76.0924 40.1983 76.0924 40.4297 76.0593 40.6281H62.6371C61.7422 40.6612 61.0463 41.3884 61.0131 42.314V49.1901C61.0131 61.124 53.0592 68.8595 40.7307 68.8595C28.4021 68.8595 20.4482 61.157 20.4482 49.1901V42.2479C20.4482 40.6612 19.0894 40.6281 19.0562 40.6281H5.30261C5.30261 40.3967 5.30261 40.1653 5.30261 39.9669C5.26947 20.8264 21.1773 5.19008 40.6975 5.19008ZM40.6975 74.8099C22.7349 74.8099 7.39051 61.1901 5.46831 43.7355L5.43517 43.4711H17.3329V49.2893C17.3329 56 19.5865 61.719 23.7955 65.7521C27.9713 69.7521 33.8373 71.9008 40.7307 71.9008C47.5909 71.9008 53.4569 69.7851 57.6659 65.7521C61.9079 61.6859 64.1284 56 64.1284 49.2893V43.4711H75.8936L75.8604 43.7355C74.0045 61.1901 58.627 74.8099 40.6975 74.8099Z" fill="white"/>
<path d="M41.4597 7.76856C41.1283 7.43799 40.8963 7.23965 40.8632 7.23965L40.6643 7.10742L40.4986 7.23965C40.4655 7.23965 40.2335 7.43799 39.9021 7.76856C39.0073 8.76028 37.2508 11.3387 40.5318 14.2147L40.6643 14.3469L40.83 14.2147C44.111 11.3387 42.3545 8.72722 41.4597 7.76856Z" fill="white"/>
<path d="M41.228 15.0429C41.8577 15.2743 42.2222 15.671 42.3217 16.5966L42.8519 22.8445L44.3101 21.4231V16.6627C44.3101 16.1007 44.741 15.671 45.3044 15.671C45.8678 15.671 46.2986 16.1007 46.2986 16.6627V19.4065L48.3865 17.3569C48.7842 16.9602 49.447 16.9933 49.8116 17.3569C50.2093 17.7536 50.2093 18.3817 49.8116 18.7784C48.7511 19.8032 47.558 20.9933 46.3649 22.1834L46.0666 22.4478C46.0335 22.514 45.9672 22.5801 45.9009 22.6131C44.8735 23.6379 43.8793 24.6297 43.1171 25.4231L43.6142 31.2082C44.4096 30.6131 45.3707 29.8859 46.5969 28.9272V24.1338C46.5969 23.5718 47.0277 23.1421 47.5911 23.1421C48.1545 23.1421 48.5854 23.5718 48.5854 24.1338V27.4396L52.2972 24.6627C52.8274 24.266 53.656 24.3652 54.0537 24.8941C54.2525 25.1586 54.3519 25.4892 54.2857 25.8197C54.2525 26.1503 54.0537 26.4478 53.7885 26.6462C51.4687 28.3652 48.1877 31.3735 43.9456 35.5057L45.0724 48.5305C45.0724 49.4561 43.9787 52.0677 40.6315 52.0677C37.0191 52.0677 36.1905 49.4561 36.1905 48.5636L37.3173 35.5057C33.009 31.2743 29.7943 28.3652 27.5075 26.6462C27.2424 26.4478 27.0767 26.1503 27.0104 25.8197C26.9773 25.4892 27.0435 25.1586 27.2424 24.8941C27.6401 24.3652 28.4686 24.233 28.9989 24.6627C30.3908 25.7206 31.617 26.6462 32.7107 27.4396V24.1338C32.7107 23.5718 33.1415 23.1421 33.7049 23.1421C34.2683 23.1421 34.6992 23.5718 34.6992 24.1338V28.9272C35.9254 29.8528 36.8865 30.5801 37.6819 31.2082L38.179 25.6875C37.3836 24.8611 36.2568 23.7702 35.0637 22.5801C35.0306 22.5801 34.9643 22.4809 34.898 22.4148C33.6718 21.1917 32.3461 19.8693 31.2193 18.7784C30.8216 18.3817 30.8216 17.7536 31.2193 17.3569C31.5839 16.9933 32.2467 16.9933 32.6444 17.3569L34.7323 19.4065V16.6627C34.7323 16.1007 35.1963 15.671 35.7266 15.671C36.29 15.671 36.7208 16.1007 36.7208 16.6627V21.39C37.3836 22.0512 37.9802 22.6462 38.4441 23.109L39.0407 16.5635C39.0407 15.8032 39.6041 15.1421 40.3332 14.9768C40.3332 14.9768 40.8303 14.8776 41.228 15.0429Z" fill="white"/>
<path d="M32.9758 40.8604C32.2467 40.8604 31.617 41.4885 31.617 42.2157V48.8935C31.617 54.4803 35.2957 58.2158 40.6977 58.2158C46.1329 58.2158 49.7784 54.4472 49.8116 48.8935V42.1827C49.7784 41.4554 49.1819 40.8604 48.4528 40.8604C47.6905 40.8604 47.094 41.4885 47.094 42.2157V48.8273C47.094 52.8274 44.5421 55.5051 40.7309 55.5051C36.9196 55.5051 34.3677 52.8274 34.3677 48.8273V42.2818C34.3677 42.2488 34.3677 42.1827 34.3677 42.1496C34.3346 41.4554 33.738 40.8604 32.9758 40.8604Z" fill="white"/>
<path d="M28.5678 35.4727C27.8055 35.4727 27.1758 36.1008 27.1758 36.8611C27.1758 36.8941 27.1758 49.1917 27.1758 49.1917C27.1758 53.1917 28.5015 56.5636 30.954 59.0098C33.4064 61.4231 36.7868 62.6793 40.7306 62.6793C44.7076 62.6793 48.088 61.4231 50.5405 59.0098C52.9929 56.5966 54.3186 53.1917 54.3186 49.1917V36.8611C54.3186 36.1008 53.6889 35.4727 52.9266 35.4727C52.1312 35.4727 51.5016 36.1008 51.5016 36.8611V49.1586C51.5016 55.7041 47.2926 59.9685 40.7306 59.9685C34.2018 59.9685 29.9929 55.7371 29.9929 49.1586V36.8611C29.9597 36.0677 29.33 35.4727 28.5678 35.4727Z" fill="white"/>
<path d="M22.5361 38.7445V49.1908C22.5361 54.4471 24.2926 58.943 27.5736 62.1166C30.8546 65.2901 35.3618 66.943 40.6975 66.943C46.0333 66.943 50.5736 65.2571 53.8215 62.1166C57.1356 58.9099 58.859 54.4471 58.859 49.1908V38.7114C58.859 37.918 58.163 37.2568 57.3676 37.2568C56.5391 37.2568 55.8762 37.918 55.8762 38.7445V49.1578C55.8762 58.2488 49.9108 64.1 40.6313 64.1C31.3849 64.1 25.4194 58.2488 25.4194 49.1578V38.8106C25.4194 38.7114 25.4194 38.6783 25.4194 38.6453C25.3531 37.8519 24.7235 37.2899 23.9612 37.2899C23.1658 37.2899 22.5693 37.8849 22.503 38.6453C22.5693 38.6122 22.5361 38.7445 22.5361 38.7445Z" fill="white"/>
<path d="M33.9697 10.381C33.5057 10.4141 33.2075 10.5132 33.2075 10.5132L32.9755 10.5794V10.8108C32.9755 10.8108 32.9755 11.1414 33.0749 11.6042C33.34 12.9265 34.3674 15.8688 38.6426 14.9431L38.8414 14.9101V14.7117C38.4106 10.3479 35.2953 10.2157 33.9697 10.381Z" fill="white"/>
<path d="M22.3371 19.3394C21.8731 19.3394 21.5748 19.4056 21.5417 19.4056L21.3097 19.4386V19.6701C21.3097 19.6701 21.2766 20.0007 21.3097 20.4635C21.4423 21.786 22.2045 24.8277 26.546 24.3318L26.7449 24.2987V24.1004C26.778 19.7692 23.6959 19.3064 22.3371 19.3394Z" fill="white"/>
<path d="M19.7521 26.9433C19.5201 27.34 19.3876 27.6375 19.3876 27.6375L19.2881 27.8688L19.487 28.0011C19.487 28.0011 19.7521 28.1994 20.183 28.3977C21.376 28.9927 24.3588 29.9513 26.2478 25.9847L26.3141 25.7863L26.1484 25.6872C22.4366 23.4063 20.4481 25.8194 19.7521 26.9433Z" fill="white"/>
<path d="M30.2581 18.1177C30.0593 17.7541 29.8604 17.5227 29.8604 17.5227L29.7278 17.3574L29.529 17.4566C29.529 17.4566 29.2639 17.5888 28.8993 17.8202C27.8719 18.5144 25.7509 20.4648 28.0376 23.7374L28.1371 23.8696L28.3028 23.8035C31.882 21.8862 30.8546 19.1756 30.2581 18.1177Z" fill="white"/>
<path d="M24.6574 32.7621C24.8231 33.1588 24.9888 33.3902 24.9888 33.3902L25.1214 33.5886L25.3202 33.5225C25.3202 33.5225 25.6185 33.4233 25.9831 33.225C27.0767 32.6299 29.3635 30.8777 27.375 27.4065L27.2756 27.2412L27.1099 27.3073C23.3981 28.8611 24.1272 31.6381 24.6574 32.7621Z" fill="white"/>
<path d="M47.4251 10.381C47.889 10.4141 48.1873 10.5132 48.1873 10.5132L48.4193 10.5794V10.8108C48.4193 10.8108 48.4193 11.1414 48.3199 11.6042C48.0548 12.9265 47.0274 15.8688 42.7521 14.9431L42.5533 14.9101V14.7117C42.9841 10.3479 46.0994 10.2157 47.4251 10.381Z" fill="white"/>
<path d="M59.0574 19.3394C59.5214 19.3394 59.8196 19.4056 59.8528 19.4056L60.0848 19.4386L60.1179 19.6701C60.1179 19.6701 60.151 20.0007 60.1179 20.4635C59.9853 21.786 59.2231 24.8277 54.8816 24.3318L54.6828 24.2987V24.1004C54.6165 19.7692 57.6986 19.3064 59.0574 19.3394Z" fill="white"/>
<path d="M61.643 26.9433C61.875 27.34 62.0075 27.6375 62.0075 27.6375L62.1069 27.8688L61.9081 28.0011C61.9081 28.0011 61.643 28.1994 61.2453 28.3977C60.0522 28.9927 57.0695 29.9513 55.2136 25.9847L55.1473 25.7863L55.313 25.6872C58.9585 23.4063 60.947 25.8194 61.643 26.9433Z" fill="white"/>
<path d="M51.137 18.1177C51.3358 17.7541 51.5347 17.5227 51.5347 17.5227L51.6673 17.3574L51.8661 17.4566C51.8661 17.4566 52.1312 17.5888 52.4958 17.8202C53.5232 18.5144 55.6442 20.4648 53.3575 23.7374L53.258 23.8696L53.0923 23.8035C49.5131 21.8862 50.5073 19.1756 51.137 18.1177Z" fill="white"/>
<path d="M56.738 32.7631C56.5723 33.1598 56.4066 33.3912 56.4066 33.3912L56.274 33.5896L56.0751 33.5235C56.042 33.5235 55.7769 33.4243 55.4123 33.2259C54.3187 32.6309 52.0319 30.8787 54.0204 27.4075L54.1198 27.2422L54.2855 27.3083C57.9973 28.8621 57.2351 31.6391 56.738 32.7631Z" fill="white"/>
<path d="M103.004 19.3723C103.004 19.769 102.672 20.0665 102.274 20.0665H98.3306C97.9329 20.0665 97.6015 19.769 97.6015 19.3723V18.7772C97.6015 18.3805 97.9329 18.083 98.3306 18.083H102.274C102.672 18.083 103.004 18.3805 103.004 18.7772V19.3723Z" fill="white"/>
<path d="M300.327 7.93359L300.294 15.3387V16.4296V32.9918C300.294 35.6695 300.095 37.4877 299.73 38.4464C298.836 40.6613 296.946 41.7522 294.096 41.7522C292.804 41.7522 291.677 41.4878 290.782 40.8927C289.622 40.2316 288.86 39.2068 288.529 37.8514C288.297 37.0249 288.197 35.7356 288.197 33.9505V15.2395C288.197 13.7519 287.369 8.9584 280.442 7.96665H280.409V15.2395V31.8678C280.409 36.6613 280.873 40.0332 281.834 42.0498C282.895 44.2977 284.585 46.0498 286.971 47.3391C289.191 48.4961 291.611 49.0912 294.262 49.0912C298.67 49.0912 302.15 47.6697 304.735 44.7936C306.292 43.0746 307.287 41.058 307.717 38.7439C307.949 37.4547 308.082 35.1736 308.082 31.8678V15.2725C308.148 13.9833 307.353 8.9584 300.327 7.93359Z" fill="white"/>
<path d="M208.691 17.2227C204.25 17.2227 200.207 18.9747 197.224 21.7847V18.8094V18.7103C197.224 18.3136 196.892 18.016 196.495 18.016H192.551C192.153 18.016 191.822 18.3466 191.822 18.7103V18.8094V60.0989L192.617 60.0659C193.976 59.9997 196.694 59.0741 197.224 55.8675V45.0906C200.173 47.9005 204.217 49.6526 208.691 49.6526C217.805 49.6526 225.195 42.3798 225.195 33.4211C225.195 24.5285 217.805 17.2227 208.691 17.2227ZM208.691 44.5616C202.46 44.5616 197.39 39.5699 197.39 33.4541C197.39 27.3384 202.46 22.3466 208.691 22.3466C214.921 22.3466 219.992 27.3384 219.992 33.4541C219.992 39.5699 214.921 44.5616 208.691 44.5616Z" fill="white"/>
<path d="M114.47 17.2227C110.029 17.2227 105.986 18.9747 103.003 21.7847V18.7103H97.5681V60.1321L98.3635 60.0991C99.7223 60.033 102.44 59.1073 102.97 55.9007V45.1237C105.953 47.9337 109.996 49.6858 114.437 49.6858C123.551 49.6858 130.941 42.413 130.941 33.4542C130.975 24.5285 123.584 17.2227 114.47 17.2227ZM114.47 44.5617C108.24 44.5617 103.169 39.57 103.169 33.4542C103.169 27.3384 108.24 22.3467 114.47 22.3467C120.701 22.3467 125.771 27.3384 125.771 33.4542C125.771 39.57 120.701 44.5617 114.47 44.5617Z" fill="white"/>
<path d="M254.624 17.2227C245.511 17.2227 238.12 24.4954 238.12 33.4542C238.12 42.3799 245.511 49.6857 254.624 49.6857C261.849 49.6857 268.179 45.1237 270.333 38.3137L270.4 38.0493C270.4 38.0162 270.4 38.0162 270.4 38.0162C270.499 37.6526 270.3 37.3881 269.903 37.3881H265.892C265.495 37.3881 265.064 37.5534 264.865 38.0493C263.042 42.0162 259.032 44.5947 254.591 44.5947C248.99 44.5947 244.218 40.4955 243.423 35.1071H271.029L271.096 34.1153C271.096 33.917 271.129 33.7186 271.129 33.4872C271.129 32.5947 271.063 31.669 270.864 30.6773C269.505 22.8756 262.678 17.2227 254.624 17.2227ZM243.887 30.0161C245.378 25.4541 249.686 22.3467 254.624 22.3467C259.596 22.3467 263.871 25.4541 265.362 30.0161H243.887Z" fill="white"/>
<path d="M162.393 18.7449C162.393 18.3482 162.061 18.0506 161.664 18.0506H157.786C157.389 18.0506 157.057 18.3812 157.057 18.7449V19.3399C157.057 19.373 157.057 19.406 157.057 19.406V37.125C157.057 41.3234 153.246 44.7283 148.54 44.7283C143.834 44.7283 140.023 41.3234 140.023 37.125V18.8771V18.7118C140.023 18.3151 139.691 18.0176 139.293 18.0176H135.416C135.018 18.0176 134.687 18.3482 134.687 18.7118V19.3068V37.125C134.687 44.1994 140.917 49.9845 148.54 49.9845C156.162 49.9845 162.393 44.2325 162.393 37.125V19.0754V18.7449Z" fill="white"/>
<path d="M233.646 7.14062H229.703C229.305 7.14062 228.973 7.4712 228.973 7.83484V8.42988C228.973 8.42988 228.973 8.42988 228.973 8.46293V49.1239L229.769 49.0909C231.128 49.0248 233.845 48.0991 234.375 44.8925V8.46293V7.8679C234.375 7.4712 234.044 7.14062 233.646 7.14062Z" fill="white"/>
<path d="M187.149 20.2308L187.083 20.1977C185.061 19.1399 182.841 18.5779 180.554 18.5779C177.24 18.5779 174.191 19.7349 171.804 21.6523V19.4374C171.804 19.4044 171.804 19.3713 171.804 19.3713V18.7762C171.804 18.3796 171.473 18.082 171.042 18.082H166.966C166.535 18.082 166.204 18.4126 166.204 18.7762V19.3713V19.4043V49.2557H167.231H167.264C169.12 49.0243 171.407 47.7681 171.738 44.9251V31.6688C172.07 27.206 175.881 23.6358 180.487 23.6358C182.84 23.6358 185.028 24.5283 186.685 26.1812C186.718 26.2143 186.718 26.2473 186.751 26.2473L187.116 26.611C187.58 27.0407 187.977 26.7763 187.977 26.3135V21.9829C188.044 21.5201 187.977 20.7928 187.149 20.2308Z" fill="white"/>
</svg>
