<svg width="120" height="441" viewBox="0 0 120 441" fill="none" xmlns="http://www.w3.org/2000/svg">
<path d="M63.6598 83.1459L43.5808 55.6733L11.7171 69.4321L63.0143 83.5212L63.6598 83.1459Z" fill="#F07D32"/>
<path d="M47.0787 78.995L11.7171 69.4321L0 106.43L18.4051 102.084L47.0787 78.995Z" fill="#F07D32"/>
<path d="M62.016 86.4636L41.8244 99.3517L51.9352 119.784L62.2862 86.8764L62.016 86.4636Z" fill="#3579A4"/>
<path d="M58.9685 97.1149L51.9352 119.784L77.5538 126.824L75.9099 115.49L58.9685 97.1149Z" fill="#3579A4"/>
<path d="M65.9267 86.5086L82.5979 109.32L109.08 97.8955L66.4672 86.1859L65.9267 86.5086Z" fill="#3579A4"/>
<path d="M79.7156 89.9465L109.08 97.8955L119.678 68.2161L103.518 70.7982L79.7156 89.9465Z" fill="#3579A4"/>
<path d="M66.9851 81.4195L107.451 55.6207L87.1767 14.6445L66.4446 80.5938L66.9851 81.4195Z" fill="#3579A4"/>
<path d="M71.0084 68.3587L87.1767 14.6445L35.5492 0L38.8595 22.7062L71.0084 68.3587Z" fill="#3579A4"/>
<path d="M8.60888 370.611L62.5239 385.838V393.245L23.1216 404.337C21.4422 404.813 19.6125 405.101 17.6323 405.201V405.352C19.4871 405.502 21.2918 405.828 23.0464 406.329L62.5239 417.496V424.827L8.60889 440.618V433.663L49.9663 422.195C51.6958 421.719 53.5005 421.418 55.3804 421.293V421.105C54.0519 420.98 52.2472 420.591 49.9663 419.94L8.60889 408.021V401.968L50.2671 390.538C51.6958 390.137 53.3752 389.836 55.3052 389.636V389.485C54.0018 389.385 52.2723 389.047 50.1167 388.47L8.60888 377.454V370.611Z" fill="#231815"/>
<path d="M63.4263 338.524C63.4263 346.169 60.9072 352.297 55.8691 356.909C50.8311 361.496 44.2765 363.79 36.2056 363.79C27.533 363.79 20.6151 361.446 15.4517 356.759C10.2882 352.072 7.70654 345.693 7.70654 337.622C7.70654 330.177 10.213 324.187 15.2261 319.65C20.2391 315.088 26.7936 312.807 34.8896 312.807C43.6875 312.807 50.6431 315.138 55.7563 319.8C60.8696 324.463 63.4263 330.704 63.4263 338.524ZM13.4214 338.073C13.4214 343.738 15.4642 348.337 19.5498 351.871C23.6354 355.405 28.9993 357.173 35.6416 357.173C42.2839 357.173 47.6353 355.456 51.6958 352.022C55.7313 348.563 57.749 344.063 57.749 338.524C57.749 332.609 55.819 327.947 51.959 324.538C48.099 321.129 42.6974 319.424 35.7544 319.424C28.6359 319.424 23.1341 321.079 19.249 324.387C15.3639 327.696 13.4214 332.258 13.4214 338.073Z" fill="#231815"/>
<path d="M8.60888 235.979L62.5239 251.206V258.613L23.1216 269.704C21.4422 270.18 19.6125 270.468 17.6323 270.569V270.719C19.4871 270.869 21.2918 271.195 23.0464 271.697L62.5239 282.863V290.195L8.60888 305.986L8.60888 299.03L49.9663 287.563C51.6958 287.086 53.5005 286.786 55.3804 286.66V286.472C54.0519 286.347 52.2472 285.959 49.9663 285.307L8.60888 273.388V267.335L50.2671 255.905C51.6958 255.504 53.3752 255.204 55.3052 255.003V254.853C54.0018 254.752 52.2723 254.414 50.1167 253.838L8.60888 242.821V235.979Z" fill="#231815"/>
<path d="M61.2056 205.02C62.436 207.349 63.0513 210.249 63.0513 213.721C63.0513 218.203 61.6084 221.792 58.7227 224.487C55.8369 227.183 52.0503 228.53 47.3628 228.53C42.3237 228.53 38.2515 227.014 35.146 223.982C32.0405 220.95 30.4878 217.105 30.4878 212.446C30.4878 209.458 30.9199 206.982 31.7842 205.02H35.7173C34.4575 207.275 33.8276 209.766 33.8276 212.49C33.8276 216.108 35.0361 219.045 37.4531 221.301C39.8701 223.543 43.1001 224.663 47.1431 224.663C50.981 224.663 54.0425 223.616 56.3276 221.521C58.5981 219.412 59.7334 216.65 59.7334 213.237C59.7334 210.073 59.0303 207.334 57.624 205.02H61.2056Z" fill="#231815"/>
<path d="M62.5239 173.203V177.73L37.4092 193.945C36.7793 194.356 36.1201 194.692 35.4316 194.956V195.088C36.1055 194.971 37.5483 194.912 39.7603 194.912H62.5239V198.604H31.0151V193.814L55.7344 178.037C56.7598 177.378 57.4629 176.953 57.8438 176.763V176.675C56.9355 176.821 55.3901 176.895 53.2075 176.895H31.0151V173.203H62.5239Z" fill="#231815"/>
<path d="M61.2495 166.414H56.8989C57.3384 165.916 57.7339 165.322 58.0854 164.634C58.437 163.931 58.7373 163.198 58.9863 162.437C59.2207 161.66 59.4038 160.884 59.5356 160.107C59.6675 159.331 59.7334 158.613 59.7334 157.954C59.7334 155.684 59.3159 153.992 58.481 152.878C57.6313 151.751 56.4155 151.187 54.8335 151.187C53.9839 151.187 53.2441 151.377 52.6143 151.758C51.9844 152.124 51.4131 152.637 50.9004 153.296C50.373 153.955 49.875 154.739 49.4062 155.647C48.9228 156.541 48.4175 157.507 47.8901 158.547C47.3335 159.646 46.7695 160.671 46.1982 161.624C45.627 162.576 44.9971 163.403 44.3086 164.107C43.6201 164.81 42.8438 165.366 41.9795 165.776C41.1006 166.172 40.0752 166.37 38.9033 166.37C37.4678 166.37 36.2227 166.055 35.168 165.425C34.0986 164.795 33.2197 163.967 32.5312 162.942C31.8428 161.917 31.3301 160.752 30.9932 159.448C30.6562 158.13 30.4878 156.79 30.4878 155.427C30.4878 152.322 30.8613 150.059 31.6084 148.638H35.7612C34.4722 150.498 33.8276 152.886 33.8276 155.801C33.8276 156.607 33.9155 157.412 34.0913 158.218C34.2524 159.024 34.5234 159.741 34.9043 160.371C35.2852 161.001 35.7759 161.514 36.3765 161.909C36.9771 162.305 37.7095 162.503 38.5737 162.503C39.3794 162.503 40.0752 162.356 40.6611 162.063C41.2471 161.755 41.7817 161.309 42.2651 160.723C42.7485 160.137 43.2173 159.426 43.6714 158.591C44.1255 157.742 44.6235 156.768 45.1655 155.669C45.7222 154.541 46.3081 153.472 46.9233 152.461C47.5386 151.45 48.2197 150.564 48.9668 149.802C49.7139 149.041 50.5415 148.44 51.4497 148.001C52.3579 147.546 53.3979 147.319 54.5698 147.319C56.1226 147.319 57.4409 147.627 58.5249 148.242C59.5942 148.843 60.4658 149.663 61.1396 150.703C61.8135 151.729 62.2969 152.915 62.5898 154.263C62.8975 155.61 63.0513 157.031 63.0513 158.525C63.0513 159.024 63.0073 159.639 62.9194 160.371C62.8462 161.104 62.729 161.851 62.5679 162.612C62.4214 163.374 62.2383 164.099 62.0186 164.788C61.7842 165.462 61.5278 166.003 61.2495 166.414Z" fill="#231815"/>
<path d="M82.6187 314.064L101.524 321.064V323.503L82.6187 330.358V327.893L97.6084 322.659C98.0918 322.492 98.6499 322.365 99.2827 322.277V322.224C98.7554 322.154 98.1885 322.009 97.582 321.789L82.6187 316.45V314.064Z" fill="#231815"/>
<path d="M82.6187 308.637H84.5171V310.483H99.6255V308.637H101.524V314.543H99.6255V312.698H84.5171V314.543H82.6187V308.637Z" fill="#231815"/>
<path d="M101.524 296.83V306.849H82.6187V297.252H84.6226V304.635H90.9111V297.806H92.9019V304.635H99.52V296.83H101.524Z" fill="#231815"/>
<path d="M84.6226 283.362V288.82H101.524V291.034H84.6226V296.479H82.6187V283.362H84.6226Z" fill="#231815"/>
<path d="M101.524 266.492V269.208L86.4551 278.937C86.0771 279.183 85.6816 279.385 85.2686 279.544V279.623C85.6729 279.552 86.5386 279.517 87.8657 279.517H101.524V281.732H82.6187V278.858L97.4502 269.392C98.0654 268.997 98.4873 268.742 98.7158 268.628V268.575C98.1709 268.663 97.2437 268.707 95.9341 268.707H82.6187V266.492H101.524Z" fill="#231815"/>
<path d="M101.524 248.251V250.703L96.2241 252.707V260.723L101.524 262.608V265.073L82.6187 257.822V255.528L101.524 248.251ZM94.2334 253.432L86.1782 256.399C85.9146 256.495 85.4927 256.592 84.9126 256.689V256.741C85.4487 256.829 85.8706 256.93 86.1782 257.045L94.2334 259.984V253.432Z" fill="#231815"/>
<path d="M101.524 227.532V229.733H88.8413C87.8393 229.733 86.6133 229.672 85.1631 229.549V229.602C86.0156 229.812 86.6265 230.001 86.9956 230.168L101.524 236.628V237.709L87.1011 244.156C86.6792 244.341 86.0332 244.53 85.1631 244.723V244.776C85.9189 244.706 87.1538 244.67 88.8677 244.67H101.524L101.524 246.806H82.6187L82.6186 243.879L95.8022 238.079C96.813 237.63 97.5688 237.34 98.0698 237.208V237.129C97.0327 236.751 96.2593 236.448 95.7495 236.22L82.6186 230.3V227.532H101.524Z" fill="#231815"/>
<path d="M100.733 204.972C101.471 206.369 101.84 208.11 101.84 210.193C101.84 212.882 100.975 215.035 99.2432 216.653C97.5117 218.27 95.2397 219.078 92.4272 219.078C89.4038 219.078 86.9604 218.169 85.0972 216.349C83.2339 214.53 82.3022 212.223 82.3022 209.428C82.3022 207.635 82.5615 206.15 83.0801 204.972H85.4399C84.6841 206.325 84.3061 207.82 84.3061 209.454C84.3061 211.625 85.0312 213.387 86.4814 214.741C87.9316 216.086 89.8696 216.758 92.2954 216.758C94.5981 216.758 96.4351 216.13 97.8061 214.873C99.1684 213.607 99.8496 211.95 99.8496 209.903C99.8496 208.004 99.4277 206.361 98.584 204.972H100.733Z" fill="#231815"/>
<path d="M101.84 197.12C101.84 199.115 101.212 200.71 99.9551 201.905C98.6894 203.092 97.0151 203.685 94.9321 203.685C92.6645 203.685 90.8935 203.066 89.6191 201.826C88.3447 200.587 87.7075 198.913 87.7075 196.803C87.7075 194.791 88.3271 193.222 89.5664 192.097C90.8057 190.963 92.5239 190.396 94.7212 190.396C96.8745 190.396 98.6016 191.007 99.9023 192.229C101.194 193.442 101.84 195.072 101.84 197.12ZM89.5268 196.962C89.5268 198.35 90.0015 199.449 90.9507 200.258C91.8911 201.066 93.1919 201.47 94.853 201.47C96.4526 201.47 97.7139 201.062 98.6367 200.244C99.5596 199.427 100.021 198.333 100.021 196.962C100.021 195.564 99.5684 194.492 98.6631 193.745C97.7578 192.989 96.4702 192.611 94.8003 192.611C93.1128 192.611 91.812 192.989 90.8979 193.745C89.9839 194.492 89.5268 195.564 89.5268 196.962Z" fill="#231815"/>
<path d="M101.814 187.541C101.814 187.945 101.669 188.292 101.379 188.582C101.089 188.863 100.742 189.004 100.337 189.004C99.9331 189.004 99.5859 188.863 99.2959 188.582C98.9971 188.292 98.8476 187.945 98.8476 187.541C98.8476 187.128 98.9971 186.776 99.2959 186.486C99.5859 186.196 99.9331 186.051 100.337 186.051C100.742 186.051 101.089 186.196 101.379 186.486C101.669 186.776 101.814 187.128 101.814 187.541Z" fill="#231815"/>
<path d="M98.5181 181.811L105.004 183.92V185.463L98.5181 183.92V181.811Z" fill="#231815"/>
<path d="M101.524 169.186V178.995H82.6186V176.78H99.52V169.186H101.524Z" fill="#231815"/>
<path d="M101.392 161.664C101.673 162.174 101.814 162.846 101.814 163.681C101.814 166.045 100.496 167.227 97.8589 167.227H89.8696V169.548H88.0239V167.227H84.728L84.0293 165.065H88.0239V161.664H89.8696V165.065H97.4766C98.3818 165.065 99.0278 164.911 99.4145 164.604C99.8013 164.296 99.9946 163.786 99.9946 163.074C99.9946 162.53 99.8452 162.059 99.5464 161.664H101.392Z" fill="#231815"/>
<path d="M101.524 148.604V150.766H99.23V150.819C100.97 151.821 101.84 153.368 101.84 155.46C101.84 157.156 101.238 158.514 100.034 159.533C98.8213 160.544 97.1733 161.049 95.0903 161.049C92.8579 161.049 91.0693 160.487 89.7246 159.362C88.3799 158.237 87.7075 156.738 87.7075 154.866C87.7075 153.012 88.437 151.663 89.896 150.819V150.766H81.5376V148.604H101.524ZM95.4199 150.766H93.4292C92.3393 150.766 91.4165 151.127 90.6606 151.847C89.9048 152.568 89.5268 153.482 89.5268 154.59C89.5268 155.908 90.0102 156.945 90.977 157.701C91.9438 158.457 93.2798 158.835 94.9849 158.835C96.5405 158.835 97.771 158.474 98.6763 157.754C99.5727 157.024 100.021 156.049 100.021 154.827C100.021 153.623 99.5859 152.647 98.7158 151.9C97.8457 151.144 96.7471 150.766 95.4199 150.766Z" fill="#231815"/>
</svg>
