<svg width="123" height="130" viewBox="0 0 123 130" fill="none" xmlns="http://www.w3.org/2000/svg">
<g clip-path="url(#clip0_261_963)">
<path d="M65.6181 84.4539L44.8918 57.4664L13.3641 71.9786L64.9817 84.8445L65.6181 84.4539Z" fill="#F07D32"/>
<path d="M48.9431 80.6984L13.3642 71.9787L2.52979 109.245L20.8264 104.462L48.9431 80.6984Z" fill="#F07D32"/>
<path d="M64.0536 87.8097L44.174 101.174L54.7676 121.36L64.3336 88.216L64.0536 87.8097Z" fill="#3579A4"/>
<path d="M61.2602 98.5305L54.7677 121.36L80.5464 127.79L78.6336 116.498L61.2602 98.5305Z" fill="#3579A4"/>
<path d="M67.9642 87.7618L85.1728 110.17L111.376 98.1198L68.4968 87.4263L67.9642 87.7618Z" fill="#3579A4"/>
<path d="M81.8308 90.8711L111.376 98.1199L121.266 68.197L105.171 71.1625L81.8308 90.8711Z" fill="#3579A4"/>
<path d="M68.9014 82.649L108.743 55.8958L87.5002 15.4131L68.3415 81.8364L68.9014 82.649Z" fill="#3579A4"/>
<path d="M72.6132 69.4963L87.5003 15.413L35.5393 1.99971L39.3883 24.6208L72.6132 69.4963Z" fill="#3579A4"/>
</g>
<defs>
<clipPath id="clip0_261_963">
<rect width="126.824" height="119.678" fill="white" transform="translate(3.0144 129.633) rotate(-91.3619)"/>
</clipPath>
</defs>
</svg>
